<svg width="263" height="316" viewBox="0 0 263 316" fill="none" xmlns="http://www.w3.org/2000/svg">
<g clip-path="url(#clip0_1283_900)">
<path d="M1.87392 151.138C2.83769 152.748 4.14265 154.127 5.69688 155.177C7.25111 156.228 9.01681 156.925 10.8696 157.22C12.7224 157.514 14.6172 157.399 16.4206 156.882C18.2239 156.364 19.892 155.458 21.3073 154.227L60.8655 176.915L59.3912 153.263L22.0521 135.344C19.8257 133.104 16.8548 131.758 13.7023 131.562C10.5499 131.365 7.43495 132.332 4.94773 134.279C2.46051 136.226 0.773834 139.017 0.207311 142.125C-0.359211 145.232 0.23378 148.439 1.87392 151.138Z" fill="#FFB8B8"/>
<path d="M116.398 242.027C104.664 258.45 105.084 285.927 108.357 316H163.838L166.25 310.372L169.466 316H221.73C221.73 316 217.71 239.614 210.473 237.202C203.236 234.79 116.398 242.027 116.398 242.027Z" fill="#2F2E41"/>
<path d="M163.837 70.4343C179.38 70.4343 191.979 57.8346 191.979 42.2922C191.979 26.7498 179.38 14.1501 163.837 14.1501C148.295 14.1501 135.695 26.7498 135.695 42.2922C135.695 57.8346 148.295 70.4343 163.837 70.4343Z" fill="#FFB8B8"/>
<path d="M184.178 77.7359L189.682 88.2839L227.746 105.252L217.741 202.082L213.53 212.109L215.805 220.816L210.319 227.243C215.826 232.225 216.525 237.441 213.53 242.836L196.001 246.851C196.001 246.851 98.5362 255.518 106.75 240.418C115.725 223.921 118.011 175.197 98.1976 149.161C81.377 127.056 94.2908 98.3733 94.2908 98.3733L134.19 86.4494L148.865 77.7358L184.178 77.7359Z" fill="#3F3D56"/>
<path d="M176.329 1.06862C176.462 0.788813 176.674 0.554921 176.941 0.396981C177.207 0.239041 177.514 0.164262 177.823 0.182252C164.939 -0.588428 151.368 0.913233 140.589 8.01316C137.978 9.73325 135.516 11.7849 132.675 13.0327C132.54 13.093 132.424 13.1869 132.337 13.3054C132.25 13.4238 132.195 13.5628 132.178 13.7088C132.16 13.8548 132.181 14.0028 132.237 14.1385C132.294 14.2742 132.384 14.393 132.5 14.4833L132.813 14.728C132.936 14.8246 133.03 14.9531 133.085 15.0995C133.14 15.2459 133.154 15.4047 133.126 15.5585C133.097 15.7123 133.027 15.8553 132.922 15.972C132.818 16.0886 132.684 16.1744 132.534 16.22C132.378 16.2676 132.239 16.3588 132.133 16.4828C132.027 16.6068 131.959 16.7586 131.936 16.9201C131.913 17.0817 131.937 17.2463 132.005 17.3947C132.073 17.543 132.182 17.6688 132.319 17.7574L134.711 19.3032C134.831 19.3797 134.931 19.4852 135 19.6101C135.069 19.735 135.105 19.8752 135.106 20.0179C135.107 20.1605 135.072 20.3011 135.004 20.4267C134.936 20.5524 134.838 20.6589 134.719 20.7367C134.516 20.8619 134.303 20.9697 134.083 21.0592C133.945 21.1108 133.824 21.1969 133.729 21.3092C133.635 21.4214 133.571 21.5561 133.544 21.7003C133.517 21.8444 133.527 21.9931 133.574 22.1321C133.621 22.271 133.703 22.3955 133.812 22.4935C134.848 23.4156 135.642 24.577 136.126 25.8765C136.923 27.9493 137.067 30.2068 137.201 32.4235C138.025 29.2251 141.516 27.3423 144.813 27.151C148.11 26.9596 151.326 28.0476 154.535 28.8297C161.525 30.5281 168.784 30.8074 175.883 29.6509C173.472 34.4887 175.505 40.2591 177.552 45.2619L184.176 42.4228C193.272 37.2878 186.936 59.0097 183.535 61.9918C190.479 64.3992 208.654 37.6791 202.807 27.5436C199.766 22.2712 201.925 15.4711 195.945 10.4706C193.014 7.38549 187.163 8.75673 184.176 6.19261C183 5.18341 184.792 2.48345 183.176 1.89504C182.639 1.69961 176.418 0.871646 176.329 1.06862Z" fill="#2F2E41"/>
<path d="M128.663 89.1736C123.499 112.1 110.255 165.629 96.8175 176.823C95.9653 177.628 94.9435 178.231 93.8274 178.589C46.5951 190.095 31.4609 160.744 31.4609 160.744C31.4609 160.744 44.1186 154.576 44.4396 142.519L69.9659 150.439L92.2176 100.364L95.4921 97.3093L95.5104 97.291L128.663 89.1736Z" fill="#3F3D56"/>
<path d="M229.368 300.883C230.721 299.583 231.772 298.002 232.447 296.252C233.123 294.502 233.406 292.625 233.278 290.753C233.149 288.881 232.612 287.061 231.704 285.419C230.795 283.778 229.538 282.355 228.021 281.252L241.262 237.614L218.543 244.354L209.452 284.76C207.768 287.432 207.122 290.629 207.638 293.745C208.153 296.862 209.794 299.68 212.249 301.668C214.704 303.655 217.802 304.673 220.958 304.528C224.113 304.384 227.106 303.087 229.368 300.883Z" fill="#FFB8B8"/>
<path d="M217.251 102.811L227.746 105.252C227.746 105.252 271.123 189.649 260.67 205.731C250.217 221.812 237.412 275.052 237.412 275.052C237.412 275.052 218.472 271.287 211.236 261.638L224.487 198.494L210.818 145.426L217.251 102.811Z" fill="#3F3D56"/>
<path d="M18.1485 228.138L18.5253 92.2114C18.536 89.4602 19.6376 86.8257 21.5884 84.8857C23.5391 82.9457 26.1798 81.8588 28.9309 81.8633L131.586 82.1479C134.337 82.1586 136.972 83.2602 138.912 85.211C140.852 87.1617 141.938 89.8024 141.934 92.5535L141.557 228.48C141.546 231.232 140.445 233.866 138.494 235.806C136.543 237.746 133.903 238.833 131.152 238.829L28.4965 238.544C25.7454 238.533 23.1108 237.432 21.1709 235.481C19.2309 233.53 18.1439 230.889 18.1485 228.138Z" fill="#E6E6E6"/>
<path d="M26.1368 187.105L26.379 99.7184C26.389 97.1418 27.4207 94.6745 29.2477 92.8576C31.0746 91.0408 33.5477 90.0228 36.1242 90.0271L124.348 90.2717C126.924 90.2817 129.392 91.3133 131.208 93.1403C133.025 94.9672 134.043 97.4403 134.039 100.017L133.704 220.973C133.694 223.55 132.662 226.017 130.835 227.834C129.008 229.651 126.535 230.669 123.958 230.665L69.3058 230.513C57.8289 230.468 46.8384 225.873 38.7454 217.735C30.6525 209.597 26.118 198.581 26.1368 187.105Z" fill="white"/>
<path d="M114.239 128.412H45.4478C44.3531 128.412 43.3033 127.977 42.5292 127.203C41.7552 126.429 41.3203 125.379 41.3203 124.285C41.3203 123.19 41.7552 122.14 42.5292 121.366C43.3033 120.592 44.3531 120.157 45.4478 120.157H114.239C115.334 120.157 116.384 120.592 117.158 121.366C117.932 122.14 118.367 123.19 118.367 124.285C118.367 125.379 117.932 126.429 117.158 127.203C116.384 127.977 115.334 128.412 114.239 128.412Z" fill="#FFDF00"/>
<path d="M60.5819 109.38H45.4478C44.3531 109.38 43.3033 108.945 42.5292 108.171C41.7552 107.397 41.3203 106.347 41.3203 105.252C41.3203 104.158 41.7552 103.108 42.5292 102.334C43.3033 101.56 44.3531 101.125 45.4478 101.125H60.5819C61.6766 101.125 62.7265 101.56 63.5005 102.334C64.2746 103.108 64.7094 104.158 64.7094 105.252C64.7094 106.347 64.2746 107.397 63.5005 108.171C62.7265 108.945 61.6766 109.38 60.5819 109.38Z" fill="#FFDF00"/>
<path d="M114.239 147.445H45.4478C44.3531 147.445 43.3033 147.01 42.5292 146.236C41.7552 145.462 41.3203 144.412 41.3203 143.317C41.3203 142.223 41.7552 141.173 42.5292 140.399C43.3033 139.625 44.3531 139.19 45.4478 139.19H114.239C115.334 139.19 116.384 139.625 117.158 140.399C117.932 141.173 118.367 142.223 118.367 143.317C118.367 144.412 117.932 145.462 117.158 146.236C116.384 147.01 115.334 147.445 114.239 147.445Z" fill="#FFDF00"/>
<path d="M114.239 166.477H45.4478C44.3531 166.477 43.3033 166.042 42.5292 165.268C41.7552 164.494 41.3203 163.444 41.3203 162.349C41.3203 161.255 41.7552 160.205 42.5292 159.431C43.3033 158.657 44.3531 158.222 45.4478 158.222H114.239C115.334 158.222 116.384 158.657 117.158 159.431C117.932 160.205 118.367 161.255 118.367 162.349C118.367 163.444 117.932 164.494 117.158 165.268C116.384 166.042 115.334 166.477 114.239 166.477Z" fill="#FFDF00"/>
<path d="M108.673 216.626C117.744 216.626 125.097 209.273 125.097 200.203C125.097 191.133 117.744 183.78 108.673 183.78C99.603 183.78 92.25 191.133 92.25 200.203C92.25 209.273 99.603 216.626 108.673 216.626Z" fill="#FFDF00"/>
<path d="M106.432 208.751C106.148 208.751 105.868 208.685 105.615 208.558C105.361 208.431 105.14 208.247 104.97 208.02L100.49 202.046C100.345 201.854 100.24 201.635 100.181 201.403C100.121 201.17 100.107 200.928 100.141 200.69C100.175 200.453 100.255 200.224 100.378 200.017C100.5 199.811 100.662 199.63 100.854 199.486C101.046 199.342 101.264 199.237 101.497 199.178C101.73 199.118 101.972 199.105 102.209 199.139C102.447 199.173 102.676 199.254 102.882 199.377C103.089 199.499 103.269 199.661 103.413 199.853L106.344 203.762L113.873 192.469C114.005 192.268 114.176 192.096 114.376 191.962C114.575 191.828 114.799 191.734 115.035 191.686C115.271 191.639 115.513 191.638 115.749 191.685C115.985 191.731 116.209 191.824 116.409 191.957C116.609 192.091 116.781 192.262 116.915 192.462C117.048 192.662 117.141 192.886 117.188 193.122C117.235 193.358 117.235 193.6 117.187 193.836C117.14 194.072 117.047 194.296 116.913 194.495L107.952 207.937C107.79 208.18 107.572 208.381 107.316 208.522C107.06 208.664 106.774 208.742 106.482 208.75C106.465 208.75 106.449 208.751 106.432 208.751Z" fill="white"/>
<path d="M73.6538 50.2192C77.9596 50.2192 81.4502 46.7287 81.4502 42.4228C81.4502 38.117 77.9596 34.6265 73.6538 34.6265C69.348 34.6265 65.8574 38.117 65.8574 42.4228C65.8574 46.7287 69.348 50.2192 73.6538 50.2192Z" fill="#F2F2F2"/>
<path d="M45.2202 274.48C49.526 274.48 53.0166 270.989 53.0166 266.683C53.0166 262.378 49.526 258.887 45.2202 258.887C40.9144 258.887 37.4238 262.378 37.4238 266.683C37.4238 270.989 40.9144 274.48 45.2202 274.48Z" fill="#F2F2F2"/>
<path d="M224.537 80.4875C228.842 80.4875 232.333 76.997 232.333 72.6912C232.333 68.3853 228.842 64.8948 224.537 64.8948C220.231 64.8948 216.74 68.3853 216.74 72.6912C216.74 76.997 220.231 80.4875 224.537 80.4875Z" fill="#F2F2F2"/>
</g>
<defs>
<clipPath id="clip0_1283_900">
<rect width="262.298" height="316" fill="white"/>
</clipPath>
</defs>
</svg>
